<svg xmlns="http://www.w3.org/2000/svg" viewBox="0 0 174.85 180.17"><g id="Layer_2" data-name="Layer 2"><g id="Layer_1-2" data-name="Layer 1"><path d="M172,170a132.57,132.57,0,0,0-13.23-7c-17.36-7.35-34.65-14.8-49.8-26.31-4.17-3.17-8.26-6.45-12.85-10,12.7-2.56,17.75-5,26.05-12.11C141,98.33,154.37,77.93,167,56.92c.56-.94.46-2.29.67-3.45-1.15.05-2.45-.23-3.41.22-11.71,5.45-24.37,7.14-36.88,9.36-9.06,1.61-17.89,3.55-24.9,10.1C99.33,76,96.26,79,93.11,81.8,91.3,83.44,89.38,85,87.5,86.53a17.21,17.21,0,0,1,.11-5.39c1.73-17.5,3.66-35,5-52.52a213.05,213.05,0,0,0,0-24.24c-.06-1.5-2.08-2.92-3.19-4.38A23.59,23.59,0,0,0,85.9,3.63,21,21,0,0,0,84,8.5a41.63,41.63,0,0,1-11.64,18c-3,2.79-5.91,5.73-8.87,8.59C51.29,46.85,44.28,60.65,46.24,78.17c.47,4.18,0,8.48-.19,12.72-.07,1.19-1,2.33-1.5,3.49-1.38-.62-3.08-.92-4.08-1.92-2.62-2.65-4.71-5.85-7.43-8.38-6.43-6-15.29-6.49-20.16-1C9,87.38,6.31,92.84.67,95.45c-.05,0,0,.23,0,.35s0,.31.11.35A8.81,8.81,0,0,0,3,97.21c7.92,1.45,11,7,12.78,14.16a42.63,42.63,0,0,0,3.79,10.11C25.23,131.89,34.2,139,43.86,145.4,58.38,155,75,157.7,91.75,159.69c14,1.66,27.61,4.19,39.25,13a8.13,8.13,0,0,0,5.18,1.49,11.81,11.81,0,0,1,8,2.35c6.28,4.2,12.83,5.09,19.72,1.13,1.36-.78,3.29-.5,4.92-.87,1.91-.43,4.56-.46,5.48-1.7C175.82,173,173.94,171,172,170ZM17.63,92.56A2.52,2.52,0,1,1,20.14,90,2.52,2.52,0,0,1,17.63,92.56Z"/><path d="M11.17,100.21,0,95.68l7.84-4.2Z"/></g></g></svg>