<?xml version="1.0" encoding="utf-8"?>
<!-- Generator: Adobe Illustrator 25.1.0, SVG Export Plug-In . SVG Version: 6.00 Build 0)  -->
<svg version="1.1" id="Layer_1" xmlns="http://www.w3.org/2000/svg" xmlns:xlink="http://www.w3.org/1999/xlink" x="0px" y="0px"
	 viewBox="0 0 174.9 180.2" style="enable-background:new 0 0 174.9 180.2;" xml:space="preserve">
<style type="text/css">
	.st0{opacity:0.3;}
	.st1{fill:#FFFFFF;}
</style>
<g id="Layer_2_1_">
	<g id="Layer_1-2">
		<path d="M172,170c-4.3-2.6-8.7-4.9-13.2-7c-17.4-7.4-34.7-14.8-49.8-26.3c-4.2-3.2-8.3-6.4-12.8-10c12.7-2.6,17.8-5,26-12.1
			C141,98.3,154.4,77.9,167,56.9c0.6-0.9,0.5-2.3,0.7-3.5c-1.1,0-2.4-0.2-3.4,0.2c-11.7,5.5-24.4,7.1-36.9,9.4
			c-9.1,1.6-17.9,3.5-24.9,10.1c-3.1,2.8-6.2,5.8-9.4,8.7c-1.8,1.6-3.7,3.2-5.6,4.7c-0.2-1.8-0.2-3.6,0.1-5.4
			c1.7-17.5,3.7-35,5-52.5c0.5-8.1,0.5-16.2,0-24.2c-0.1-1.5-2.1-2.9-3.2-4.4c-1.3,1.1-2.5,2.3-3.5,3.6c-0.8,1.5-1.5,3.2-1.9,4.9
			c-2.2,6.9-6.3,13.1-11.6,18c-3,2.8-5.9,5.7-8.9,8.6C51.3,46.8,44.3,60.7,46.2,78.2c0.5,4.2,0,8.5-0.2,12.7c-0.1,1.2-1,2.3-1.5,3.5
			c-1.4-0.6-3.1-0.9-4.1-1.9c-2.6-2.7-4.7-5.8-7.4-8.4c-6.4-6-15.3-6.5-20.2-1C9,87.4,6.3,92.8,0.7,95.4c-0.1,0,0,0.2,0,0.3
			s0,0.3,0.1,0.3c0.7,0.6,1.4,1,2.2,1.2c7.9,1.4,11,7,12.8,14.2c0.8,3.5,2.1,6.9,3.8,10.1c5.7,10.4,14.6,17.5,24.3,23.9
			c14.5,9.6,31.1,12.3,47.9,14.3c14,1.7,27.6,4.2,39.2,13c1.5,1.1,3.3,1.6,5.2,1.5c2.9-0.2,5.7,0.6,8,2.4c6.3,4.2,12.8,5.1,19.7,1.1
			c1.4-0.8,3.3-0.5,4.9-0.9c1.9-0.4,4.6-0.5,5.5-1.7C175.8,173,173.9,171,172,170z M17.6,92.6c-1.4,0-2.5-1.1-2.5-2.5
			s1.1-2.5,2.5-2.5s2.5,1.1,2.5,2.5C20.2,91.4,19.1,92.5,17.6,92.6C17.7,92.6,17.6,92.6,17.6,92.6z"/>
		<path d="M11.2,100.2L0,95.7l7.8-4.2L11.2,100.2z"/>
	</g>
</g>
<g id="Layer_2_2_" class="st0">
	<g id="Layer_1-2_1_">
		<path class="st1" d="M172,170c-4.3-2.6-8.7-4.9-13.2-7c-17.4-7.4-34.7-14.8-49.8-26.3c-4.2-3.2-8.3-6.4-12.8-10
			c12.7-2.6,17.8-5,26-12.1C141,98.3,154.4,77.9,167,56.9c0.6-0.9,0.5-2.3,0.7-3.5c-1.1,0-2.4-0.2-3.4,0.2
			c-11.7,5.5-24.4,7.1-36.9,9.4c-9.1,1.6-17.9,3.5-24.9,10.1c-3.1,2.8-6.2,5.8-9.4,8.7c-1.8,1.6-3.7,3.2-5.6,4.7
			c-0.2-1.8-0.2-3.6,0.1-5.4c1.7-17.5,3.7-35,5-52.5c0.5-8.1,0.5-16.2,0-24.2c-0.1-1.5-2.1-2.9-3.2-4.4c-1.3,1.1-2.5,2.3-3.5,3.6
			c-0.8,1.5-1.5,3.2-1.9,4.9c-2.2,6.9-6.3,13.1-11.6,18c-3,2.8-5.9,5.7-8.9,8.6C51.3,46.8,44.3,60.7,46.2,78.2
			c0.5,4.2,0,8.5-0.2,12.7c-0.1,1.2-1,2.3-1.5,3.5c-1.4-0.6-3.1-0.9-4.1-1.9c-2.6-2.7-4.7-5.8-7.4-8.4c-6.4-6-15.3-6.5-20.2-1
			C9,87.4,6.3,92.8,0.7,95.4c-0.1,0,0,0.2,0,0.3s0,0.3,0.1,0.3c0.7,0.6,1.4,1,2.2,1.2c7.9,1.4,11,7,12.8,14.2
			c0.8,3.5,2.1,6.9,3.8,10.1c5.7,10.4,14.6,17.5,24.3,23.9c14.5,9.6,31.1,12.3,47.9,14.3c14,1.7,27.6,4.2,39.2,13
			c1.5,1.1,3.3,1.6,5.2,1.5c2.9-0.2,5.7,0.6,8,2.4c6.3,4.2,12.8,5.1,19.7,1.1c1.4-0.8,3.3-0.5,4.9-0.9c1.9-0.4,4.6-0.5,5.5-1.7
			C175.8,173,173.9,171,172,170z M17.6,92.6c-1.4,0-2.5-1.1-2.5-2.5s1.1-2.5,2.5-2.5s2.5,1.1,2.5,2.5C20.2,91.4,19.1,92.5,17.6,92.6
			C17.7,92.6,17.6,92.6,17.6,92.6z"/>
		<path class="st1" d="M11.2,100.2L0,95.7l7.8-4.2L11.2,100.2z"/>
	</g>
</g>
</svg>
