<?xml version="1.0" encoding="utf-8"?>
<!-- Generator: Adobe Illustrator 25.1.0, SVG Export Plug-In . SVG Version: 6.00 Build 0)  -->
<svg version="1.1" id="Layer_1" xmlns="http://www.w3.org/2000/svg" xmlns:xlink="http://www.w3.org/1999/xlink" x="0px" y="0px"
	 viewBox="0 0 203.1 203.1" style="enable-background:new 0 0 203.1 203.1;" xml:space="preserve">
<style type="text/css">
	.st0{fill:#FFFFFF;}
</style>
<g id="Layer_2_1_">
	<g id="Layer_1-2">
		<path class="st0" d="M102.3,159.8l-37.7,37.1c-0.9,0.9-1.7,1.8-2.7,2.6c-5.3,4.7-10.6,4.8-15.6-0.1
			c-14.4-14.2-28.7-28.5-42.9-42.9c-4.8-4.8-4.4-10.7,0.5-15.5l37.9-37.8c0.4-0.4,0.8-0.9,1.6-1.8c-9.3-9.3-18.7-18.5-28-27.7
			c-4.1-4-8.2-8.1-12.2-12.2C-1,57.2-1.1,51.4,3.1,47.1C17.7,32.4,32.3,17.7,47,3.1c4.3-4.3,10-4.2,14.7,0.3
			c9.6,9.4,19.2,19,28.6,28.5c3.6,3.6,7,7.4,10.8,11.5c4.8-4.7,9.1-8.8,13.3-13c8.8-8.8,17.6-17.6,26.5-26.5
			c5.3-5.3,11.1-5.2,16.4,0c13.8,13.8,27.5,27.6,41.3,41.3c5.8,5.8,6,11.4,0.3,17.3c-10.8,10.9-21.7,21.7-32.6,32.5
			c-2,2-4.1,4-6.8,6.6c7.5,7.3,14.8,14.4,22.1,21.5c6.1,6,12.2,12.1,18.2,18.3c4.1,3.8,4.3,10.2,0.5,14.2c-0.1,0.1-0.2,0.2-0.3,0.3
			c-14.7,14.8-29.4,29.6-44.2,44.3c-4,4-10.1,3.8-14.1-0.3c-12.4-12.3-24.7-24.7-37-37.1C103.9,161.9,103.1,160.9,102.3,159.8z
			 M113,149l35.6,35.5l36.2-35.9l-35.8-35.3L113,149z M89.7,54.5L54.3,18.4L18.6,54l35.6,35.7L89.7,54.5z M101.9,91
			c4.9,0.8,9.9-5.2,10-9.7c0.1-5.6-4.4-10.1-10-10.2c-5.4-0.1-9.9,4.2-10.2,9.6c-0.1,5.6,4.4,10.1,9.9,10.2
			C101.7,91,101.8,91,101.9,91z M121.9,111.2c5.5-0.1,9.9-4.4,10.1-9.9c0.1-4.9-4.6-9.9-9.6-10.1c-5.4-0.2-10.3,4.4-10.5,9.5
			C111.8,106.4,116.3,111.1,121.9,111.2L121.9,111.2z M81.4,111.2c5.6,0,10.2-4.5,10.2-10.1c0-5-5.1-9.8-10.3-9.8
			c-4.9,0-9.7,4.9-9.9,10C71.3,106.4,76,111.2,81.4,111.2L81.4,111.2z M101.8,131.5c5.4-0.1,10.2-4.8,10.1-9.9
			c-0.2-5.5-4.6-9.8-10.1-9.9c-5.5,0.1-10.1,4.7-10,9.9C92,127,96.3,131.4,101.8,131.5L101.8,131.5z"/>
	</g>
</g>
</svg>
