<svg xmlns="http://www.w3.org/2000/svg" viewBox="0 0 203.06 203.08"><g id="Layer_2" data-name="Layer 2"><g id="Layer_1-2" data-name="Layer 1"><path d="M102.31,159.82l-37.69,37.1c-.89.88-1.73,1.8-2.67,2.63-5.27,4.66-10.6,4.81-15.64-.15q-21.6-21.32-42.89-42.93C-1.34,151.65-1,145.82,3.9,141l37.88-37.82c.42-.42.8-.89,1.56-1.75C34,92.1,24.65,82.91,15.36,73.7c-4.08-4-8.18-8.06-12.17-12.19C-1,57.18-1.09,51.38,3.13,47.12Q25,25.05,47,3.14c4.3-4.28,10-4.2,14.7.34,9.65,9.41,19.16,19,28.65,28.53,3.6,3.62,7,7.43,10.79,11.47,4.8-4.7,9.07-8.82,13.28-13,8.83-8.8,17.63-17.65,26.46-26.45C146.16-1.24,152-1.2,157.26,4q20.64,20.67,41.32,41.32c5.82,5.81,6,11.42.26,17.26-10.78,10.92-21.69,21.71-32.56,32.53-2,2-4.11,4-6.78,6.55,7.51,7.3,14.84,14.37,22.09,21.51q9.21,9.06,18.25,18.28A10.08,10.08,0,0,1,200,156q-22,22.25-44.19,44.26c-4,4-10.08,3.75-14.11-.27q-18.54-18.49-37-37.11A37,37,0,0,1,102.31,159.82ZM113,149l35.63,35.54,36.19-35.88-35.77-35.35ZM89.7,54.53,54.27,18.35,18.65,54,54.27,89.66ZM101.88,91c4.92.75,9.89-5.24,10-9.65a10.07,10.07,0,0,0-20.13-.54A10.06,10.06,0,0,0,101.88,91Zm20.05,20.25A10.24,10.24,0,0,0,132,101.37c.14-4.93-4.61-9.93-9.58-10.09-5.37-.17-10.35,4.38-10.46,9.53A10.2,10.2,0,0,0,121.93,111.22Zm-40.5,0a10.19,10.19,0,0,0,10.23-10.14c0-5-5.14-9.85-10.34-9.84-4.9,0-9.74,4.89-9.86,10C71.32,106.42,76,111.16,81.43,111.21Zm20.35,20.29c5.41-.06,10.17-4.75,10.07-9.93a10.35,10.35,0,0,0-10.08-9.94c-5.46.06-10.12,4.65-10,9.91A10.27,10.27,0,0,0,101.78,131.5Z"/></g></g></svg>