<?xml version="1.0" encoding="utf-8"?>
<!-- Generator: Adobe Illustrator 25.1.0, SVG Export Plug-In . SVG Version: 6.00 Build 0)  -->
<svg version="1.1" id="Layer_1" xmlns="http://www.w3.org/2000/svg" xmlns:xlink="http://www.w3.org/1999/xlink" x="0px" y="0px"
	 viewBox="0 0 122.1 205.9" style="enable-background:new 0 0 122.1 205.9;" xml:space="preserve">
<style type="text/css">
	.st0{opacity:0.3;}
	.st1{fill:#FFFFFF;}
</style>
<g id="Layer_2_2_">
	<g id="Layer_1-2_1_">
		<path d="M121.9,102.6c0,26.5-0.4,53,0.1,79.5c0.3,14.1-12.4,24-23.9,23.8c-25.1-0.5-50.2-0.4-75.3-0.1C10,205.9-0.1,193.5,0,182.9
			C0.4,129.2,0.2,75.5,0.1,21.7c0-11.2,9.8-21.5,21.1-21.6C47.6,0,73.9,0,100.3,0.1c11.7,0,21.2,9.4,21.4,21.1
			C121.9,48.3,121.8,75.4,121.9,102.6L121.9,102.6z M19,158.7h84V28.2H19V158.7z M47.1,182.4c0,7.6,6.3,14,13.7,14
			c7.8-0.1,14.3-6.3,14.3-13.8s-6.7-14.1-14.6-14C53.4,168.6,47.2,175,47.1,182.4L47.1,182.4z"/>
	</g>
</g>
<g id="Layer_2_1_" class="st0">
	<g id="Layer_1-2">
		<path class="st1" d="M121.9,102.6c0,26.5-0.4,53,0.1,79.5c0.3,14.1-12.4,24-23.9,23.8c-25.1-0.5-50.2-0.4-75.3-0.1
			C10,205.9-0.1,193.5,0,182.9C0.4,129.2,0.2,75.5,0.1,21.7c0-11.2,9.8-21.5,21.1-21.6C47.6,0,73.9,0,100.3,0.1
			c11.7,0,21.2,9.4,21.4,21.1C121.9,48.3,121.8,75.4,121.9,102.6L121.9,102.6z M19,158.7h84V28.2H19V158.7z M47.1,182.4
			c0,7.6,6.3,14,13.7,14c7.8-0.1,14.3-6.3,14.3-13.8s-6.7-14.1-14.6-14C53.4,168.6,47.2,175,47.1,182.4L47.1,182.4z"/>
	</g>
</g>
</svg>
