<svg xmlns="http://www.w3.org/2000/svg" viewBox="0 0 122.08 205.85"><g id="Layer_2" data-name="Layer 2"><g id="Layer_1-2" data-name="Layer 1"><path d="M121.93,102.58c0,26.49-.37,53,.14,79.47.28,14.12-12.36,24-23.86,23.79-25.1-.5-50.23-.38-75.34-.07C10,205.93-.07,193.51,0,182.94.36,129.21.15,75.47.13,21.74.13,10.5,9.89.2,21.19.13q39.54-.24,79.09,0a21.51,21.51,0,0,1,21.43,21.12c.18,27.12.06,54.23.06,81.35ZM19,158.71h84V28.2H19Zm28.11,23.66c0,7.56,6.33,14,13.66,14,7.83-.09,14.3-6.34,14.33-13.83s-6.69-14.07-14.57-14C53.37,168.58,47.18,175,47.15,182.37Z"/></g></g></svg>