<?xml version="1.0" encoding="utf-8"?>
<!-- Generator: Adobe Illustrator 25.1.0, SVG Export Plug-In . SVG Version: 6.00 Build 0)  -->
<svg version="1.1" id="Layer_1" xmlns="http://www.w3.org/2000/svg" xmlns:xlink="http://www.w3.org/1999/xlink" x="0px" y="0px"
	 viewBox="0 0 202.1 202.4" style="enable-background:new 0 0 202.1 202.4;" xml:space="preserve">
<style type="text/css">
	.st0{fill:#FFFFFF;}
</style>
<g id="Layer_2_1_">
	<g id="Layer_1-2">
		<path class="st0" d="M0,100.3C-1.5,48.3,43.5,1.7,97.2,0.1C153.1-1.9,200,41.9,202,97.8c0,0.3,0,0.6,0,0.8
			c1.5,56.7-43.2,100.9-96,103.6C46.6,205.2-1.6,157.1,0,100.3z M118.5,122.8h-0.2c0-11.7,0.1-23.5-0.1-35.2
			c0.1-3.2-0.6-6.4-1.9-9.3c-3.6-6.9-11.5-10.4-19-8.4c-8.6,2.1-13.6,7.9-13.6,16.8c-0.1,24.8-0.1,49.7,0.2,74.5
			c0.2,3.7,1.4,7.3,3.6,10.3c3.7,5.2,13.3,7.1,19.5,4.7c7.4-2.8,11.5-8.7,11.5-16.2C118.5,147.6,118.5,135.2,118.5,122.8
			L118.5,122.8z M119.5,43.5c0-10.1-8.2-18.4-18.3-18.4c-0.2,0-0.4,0-0.7,0C90.2,25.3,82,33.5,82.2,43.4c0.2,10.8,8.3,19,18.6,18.9
			c10.3,0,18.8-8.3,18.8-18.6C119.5,43.6,119.5,43.6,119.5,43.5L119.5,43.5z"/>
	</g>
</g>
</svg>
