<svg xmlns="http://www.w3.org/2000/svg" viewBox="0 0 202.05 202.38"><g id="Layer_2" data-name="Layer 2"><g id="Layer_1-2" data-name="Layer 1"><path d="M0,100.31C-1.52,48.3,43.54,1.69,97.2.05A101.34,101.34,0,0,1,202,98.68c1.46,56.67-43.19,100.91-96,103.57C46.57,205.24-1.59,157.1,0,100.31Zm118.5,22.53h-.17c0-11.73.13-23.47-.09-35.2a21.77,21.77,0,0,0-1.94-9.33,16.6,16.6,0,0,0-19-8.45C88.75,72,83.75,77.74,83.71,86.62c-.11,24.84-.09,49.68.25,74.52a19.49,19.49,0,0,0,3.57,10.29c3.69,5.23,13.28,7.13,19.52,4.73,7.37-2.83,11.5-8.72,11.49-16.25Q118.51,141.39,118.54,122.84Zm1-79.31a18.35,18.35,0,0,0-19-18.36c-10.27.15-18.53,8.38-18.31,18.24.24,10.82,8.31,19.05,18.56,18.93A18.72,18.72,0,0,0,119.54,43.53Z"/></g></g></svg>