<?xml version="1.0" encoding="utf-8"?>
<!-- Generator: Adobe Illustrator 25.1.0, SVG Export Plug-In . SVG Version: 6.00 Build 0)  -->
<svg version="1.1" id="Layer_1" xmlns="http://www.w3.org/2000/svg" xmlns:xlink="http://www.w3.org/1999/xlink" x="0px" y="0px"
	 viewBox="0 0 156.9 234.6" style="enable-background:new 0 0 156.9 234.6;" xml:space="preserve">
<style type="text/css">
	.st0{fill:#FFFFFF;}
</style>
<g id="Layer_2_1_">
	<g id="Layer_1-2">
		<path class="st0" d="M78.3,234.6c-5.7-9.8-11.2-19.2-16.6-28.5c-13.4-23.2-26.9-46.4-40.2-69.7c-5.6-9.8-11.9-19.5-16-30
			c-18-46.3,9.8-95.8,58-104.8c36.2-6.8,68.9,9.5,85,42.3c12.5,25.5,10.7,51.2-3.6,75.9c-21.9,37.8-43.8,75.6-65.6,113.4
			C79.1,233.5,78.9,233.8,78.3,234.6z M104.6,78.6c0-14.4-11.6-26.2-26-26.4c-14.3,0-26.4,11.6-26.5,25.5
			c-0.1,14.7,11.7,26.7,26.3,26.8c0,0,0.1,0,0.1,0C92.5,104.5,104.5,92.5,104.6,78.6L104.6,78.6z"/>
	</g>
</g>
</svg>
