<svg xmlns="http://www.w3.org/2000/svg" viewBox="0 0 156.92 234.55"><g id="Layer_2" data-name="Layer 2"><g id="Layer_1-2" data-name="Layer 1"><path d="M78.3,234.55c-5.7-9.82-11.17-19.17-16.59-28.54-13.42-23.22-26.9-46.41-40.18-69.71-5.62-9.85-11.91-19.52-16-30-18-46.3,9.84-95.75,58-104.77,36.18-6.79,68.89,9.5,85,42.33,12.53,25.54,10.71,51.24-3.58,75.93q-32.81,56.7-65.64,113.37C79.14,233.47,78.89,233.75,78.3,234.55Zm26.29-156a26.34,26.34,0,0,0-26-26.36c-14.29,0-26.4,11.63-26.53,25.49a26.6,26.6,0,0,0,26.43,26.85C92.48,104.5,104.53,92.48,104.59,78.5Z"/></g></g></svg>