<svg xmlns="http://www.w3.org/2000/svg" viewBox="0 0 246.86 246.86"><defs><style>.cls-1{fill:#e1e6ed;}</style></defs><g id="Layer_2" data-name="Layer 2"><g id="Layer_1-2" data-name="Layer 1"><circle class="cls-1" cx="123.43" cy="123.43" r="123.43"/><path d="M177.73,123.82v1.81a2.3,2.3,0,0,1-2.59,2.6H128a.91.91,0,0,0-1,1v45.88a2.29,2.29,0,0,1-2.59,2.59h-1.82a2.29,2.29,0,0,1-2.59-2.59V129.26a.91.91,0,0,0-1-1H71.72a2.29,2.29,0,0,1-2.59-2.6v-1.81a2.29,2.29,0,0,1,2.59-2.59H118.9a.92.92,0,0,0,1-1V71.72a2.29,2.29,0,0,1,2.59-2.59h1.82a2.29,2.29,0,0,1,2.59,2.59v48.47a.92.92,0,0,0,1,1h47.17A2.29,2.29,0,0,1,177.73,123.82Z"/></g></g></svg>