<svg xmlns="http://www.w3.org/2000/svg" viewBox="0 0 180.61 180.24"><g id="Layer_2" data-name="Layer 2"><g id="Layer_1-2" data-name="Layer 1"><path d="M180.57,180.24H.1c0-7,.26-14-.07-20.88-.38-8.13,2.46-15,8.54-19.86,6.26-5,12.91-10,20.18-13.3,20-9,41.27-14,63.24-13.38,25.09.71,49.27,6.09,71,19.53,7.63,4.72,14.41,10.55,16.57,19.84a58.73,58.73,0,0,1,1,11.51C180.68,169.15,180.57,174.61,180.57,180.24Z"/><path d="M90.36,0c25.08-.09,45,19.94,45,45.24a44.92,44.92,0,0,1-45,44.92C66.15,90.24,45.6,70.2,45,46.91,44.35,20.41,65.85-.69,90.36,0Z"/></g></g></svg>