<?xml version="1.0" encoding="utf-8"?>
<!-- Generator: Adobe Illustrator 25.1.0, SVG Export Plug-In . SVG Version: 6.00 Build 0)  -->
<svg version="1.1" id="Layer_1" xmlns="http://www.w3.org/2000/svg" xmlns:xlink="http://www.w3.org/1999/xlink" x="0px" y="0px"
	 viewBox="0 0 180.6 180.2" style="enable-background:new 0 0 180.6 180.2;" xml:space="preserve">
<style type="text/css">
	.st0{fill:#FFFFFF;}
</style>
<g id="Layer_2_1_">
	<g id="Layer_1-2">
		<path class="st0" d="M180.6,180.2H0.1c0-7,0.3-14-0.1-20.9c-0.4-8.1,2.5-15,8.5-19.9c6.3-5,12.9-10,20.2-13.3
			c20-9,41.3-14,63.2-13.4c25.1,0.7,49.3,6.1,71,19.5c7.6,4.7,14.4,10.6,16.6,19.8c0.7,3.8,1,7.6,1,11.5
			C180.7,169.1,180.6,174.6,180.6,180.2z"/>
		<path class="st0" d="M90.4,0c25.1-0.1,45,19.9,45,45.2c0,24.8-20.1,44.9-44.9,44.9c0,0-0.1,0-0.1,0c-24.2,0.1-44.8-20-45.4-43.3
			C44.3,20.4,65.8-0.7,90.4,0z"/>
	</g>
</g>
</svg>
